<svg width="87" height="44" viewBox="0 0 87 44" fill="none" xmlns="http://www.w3.org/2000/svg">
<path d="M2.23035 25.4652H4.67443V37.4493H2.23035V25.4652Z" fill="#394149"/>
<path d="M6.09199 33.3433C6.09038 32.4825 6.34416 31.6406 6.82121 30.9241C7.29827 30.2075 7.97715 29.6487 8.77196 29.3181C9.56672 28.9876 10.4417 28.9003 11.2862 29.0673C12.1306 29.2342 12.9066 29.6479 13.5158 30.256C14.125 30.8641 14.5402 31.6393 14.7087 32.4834C14.8773 33.3275 14.7916 34.2027 14.4625 34.9981C14.1335 35.7935 13.5759 36.4734 12.8603 36.9518C12.1447 37.4303 11.3033 37.6856 10.4425 37.6856C9.86998 37.6921 9.30203 37.5844 8.77179 37.3685C8.24156 37.1527 7.75973 36.8333 7.35455 36.4288C6.94937 36.0244 6.62899 35.5432 6.41219 35.0133C6.19539 34.4835 6.08653 33.9157 6.09199 33.3433ZM12.3325 33.3433C12.3229 32.9717 12.204 32.6112 11.9905 32.3069C11.7771 32.0025 11.4787 31.7679 11.1325 31.6323C10.7864 31.4967 10.408 31.4662 10.0447 31.5445C9.6813 31.6229 9.34914 31.8066 9.08963 32.0728C8.8302 32.339 8.65498 32.6758 8.5859 33.0411C8.51684 33.4063 8.55703 33.7838 8.70139 34.1263C8.84581 34.4688 9.08799 34.7612 9.39763 34.9668C9.70735 35.1724 10.0707 35.2821 10.4425 35.2822C10.6967 35.2894 10.9498 35.2437 11.1856 35.1481C11.4214 35.0525 11.6348 34.9092 11.8124 34.727C11.99 34.5447 12.128 34.3278 12.2174 34.0896C12.307 33.8514 12.3461 33.5974 12.3325 33.3433Z" fill="#394149"/>
<path d="M24.6181 29.2372V37.0419C24.6181 39.8038 22.4591 40.9688 20.2758 40.9688C19.508 41.0259 18.7393 40.8706 18.0539 40.52C17.3684 40.1694 16.7927 39.6369 16.3897 38.981L18.4916 37.7671C18.6584 38.1032 18.9223 38.3816 19.2491 38.5661C19.5759 38.7505 19.9506 38.8327 20.3247 38.8017C20.5708 38.8427 20.823 38.8267 21.062 38.7547C21.301 38.6829 21.5202 38.5571 21.7029 38.387C21.8854 38.217 22.0266 38.0073 22.1153 37.7741C22.2041 37.5409 22.2381 37.2904 22.2147 37.0419V36.2843C21.9274 36.6378 21.5608 36.9187 21.1447 37.1041C20.7286 37.2895 20.2746 37.3743 19.8196 37.3516C18.7133 37.3516 17.6524 36.9121 16.87 36.1298C16.0878 35.3476 15.6483 34.2866 15.6483 33.1803C15.6483 32.074 16.0878 31.0131 16.87 30.2308C17.6524 29.4486 18.7133 29.0091 19.8196 29.0091C20.2743 28.9883 20.7276 29.074 21.1435 29.2592C21.5593 29.4445 21.9261 29.7243 22.2147 30.0763V29.2616L24.6181 29.2372ZM22.2147 33.1803C22.231 32.7841 22.1284 32.3921 21.9201 32.0546C21.7117 31.7172 21.4073 31.4497 21.0458 31.2867C20.6843 31.1237 20.2823 31.0725 19.8914 31.1398C19.5006 31.207 19.1389 31.3897 18.8527 31.6641C18.5664 31.9386 18.3689 32.2924 18.2854 32.6801C18.2018 33.0677 18.2361 33.4716 18.3839 33.8395C18.5317 34.2076 18.7861 34.5229 19.1145 34.7451C19.443 34.9675 19.8304 35.0864 20.2269 35.0867C20.4858 35.105 20.7456 35.0689 20.9895 34.9807C21.2336 34.8924 21.4565 34.7541 21.6438 34.5745C21.831 34.3949 21.9786 34.178 22.0769 33.9379C22.1753 33.6978 22.2222 33.4397 22.2147 33.1803Z" fill="#394149"/>
<path d="M26.0275 33.3433C26.0259 32.4825 26.2797 31.6406 26.7567 30.9241C27.2338 30.2075 27.9127 29.6487 28.7075 29.3181C29.5022 28.9876 30.3772 28.9003 31.2217 29.0673C32.0662 29.2342 32.8421 29.6479 33.4514 30.256C34.0606 30.8641 34.4757 31.6393 34.6443 32.4834C34.8128 33.3275 34.7271 34.2027 34.3981 34.9981C34.069 35.7935 33.5114 36.4734 32.7959 36.9518C32.0802 37.4303 31.2388 37.6856 30.378 37.6856C29.8056 37.6921 29.2376 37.5844 28.7073 37.3685C28.1771 37.1527 27.6952 36.8333 27.2901 36.4288C26.8849 36.0244 26.5645 35.5432 26.3477 35.0133C26.1309 34.4835 26.022 33.9157 26.0275 33.3433ZM32.2681 33.3433C32.2585 32.9717 32.1395 32.6112 31.926 32.3069C31.7126 32.0025 31.4142 31.7679 31.068 31.6323C30.722 31.4967 30.3436 31.4662 29.9802 31.5445C29.6168 31.6229 29.2847 31.8066 29.0252 32.0728C28.7657 32.339 28.5905 32.6758 28.5214 33.0411C28.4524 33.4063 28.4926 33.7838 28.6369 34.1263C28.7813 34.4688 29.0235 34.7612 29.3332 34.9668C29.6429 35.1724 30.0063 35.2821 30.378 35.2822C30.631 35.287 30.8822 35.2398 31.1161 35.1431C31.3499 35.0465 31.5614 34.9028 31.7372 34.7208C31.913 34.539 32.0494 34.3227 32.138 34.0857C32.2265 33.8487 32.2653 33.5959 32.2518 33.3433H32.2681Z" fill="#394149"/>
<path d="M35.861 27.0376C35.861 26.7443 35.9479 26.4576 36.1108 26.2138C36.2738 25.97 36.5053 25.7799 36.7762 25.6677C37.0472 25.5555 37.3453 25.5261 37.633 25.5833C37.9206 25.6405 38.1848 25.7818 38.3922 25.9891C38.5996 26.1965 38.7407 26.4607 38.7979 26.7483C38.8552 27.0359 38.8258 27.3341 38.7136 27.605C38.6014 27.8759 38.4113 28.1076 38.1675 28.2704C37.9236 28.4333 37.637 28.5203 37.3437 28.5203C36.9511 28.5182 36.5752 28.3613 36.2976 28.0837C36.02 27.8061 35.8631 27.4302 35.861 27.0376ZM36.1135 29.2372H38.5576V37.4494H36.1135V29.2372Z" fill="#394149"/>
<path d="M49.2136 33.3433C49.2432 33.8861 49.1653 34.4295 48.9841 34.9421C48.8028 35.4546 48.5221 35.9263 48.1578 36.3299C47.7936 36.7335 47.3531 37.061 46.8618 37.2937C46.3705 37.5264 45.838 37.6596 45.295 37.6857C44.8391 37.7075 44.3839 37.6292 43.9617 37.456C43.5394 37.2829 43.1602 37.0192 42.8509 36.6836V40.757H40.4068V29.2372H42.8509V30.0112C43.1602 29.6756 43.5394 29.4119 43.9617 29.2388C44.3839 29.0656 44.8391 28.9873 45.295 29.0091C45.8373 29.0352 46.3691 29.1681 46.8598 29.4003C47.3506 29.6325 47.7907 29.9594 48.1548 30.3621C48.519 30.7648 48.7999 31.2354 48.9816 31.7471C49.1634 32.2587 49.2422 32.8012 49.2136 33.3433ZM46.7696 33.3433C46.7599 32.9609 46.6383 32.5898 46.4197 32.2758C46.2012 31.962 45.8954 31.7189 45.5403 31.5771C45.1851 31.4352 44.796 31.4006 44.4214 31.4776C44.0467 31.5546 43.7028 31.7398 43.4323 32.0103C43.1618 32.2807 42.9767 32.6245 42.8996 32.9992C42.8227 33.3739 42.8573 33.7629 42.9991 34.1181C43.141 34.4733 43.384 34.7792 43.6979 34.9976C44.0119 35.2161 44.3831 35.3378 44.7654 35.3475C45.0323 35.3645 45.2996 35.3241 45.5497 35.2292C45.7996 35.1342 46.0263 34.9868 46.2147 34.797C46.4029 34.6071 46.5485 34.3792 46.6414 34.1285C46.7342 33.8778 46.7724 33.6101 46.7533 33.3433H46.7696Z" fill="#394149"/>
<path d="M56.823 34.989C56.823 36.8791 55.1936 37.6856 53.4012 37.6856C52.6853 37.749 51.9667 37.5966 51.338 37.2482C50.7094 36.8997 50.1993 36.3711 49.8737 35.7303L52.0082 34.5164C52.0948 34.8128 52.2803 35.0706 52.5337 35.2469C52.7871 35.4233 53.0932 35.5077 53.4012 35.4859C53.996 35.4859 54.2893 35.2985 54.2893 34.9727C54.2893 34.0683 50.2158 34.5491 50.2158 31.7139C50.2158 29.9216 51.7311 29.0172 53.4746 29.0172C54.1179 28.9977 54.7548 29.1505 55.3192 29.46C55.8836 29.7694 56.3549 30.2241 56.6845 30.777L54.5419 31.9013C54.4472 31.6861 54.2921 31.5031 54.0954 31.3743C53.8987 31.2456 53.669 31.1768 53.4339 31.1762C53.0103 31.1762 52.7495 31.3391 52.7495 31.6406C52.7821 32.5774 56.823 31.9501 56.823 34.989Z" fill="#394149"/>
<path d="M65.8172 29.2372V37.4493H63.373V36.6836C63.0888 37.0238 62.728 37.292 62.3202 37.4662C61.9124 37.6404 61.4691 37.7155 61.0267 37.6856C59.3973 37.6856 57.9554 36.5043 57.9554 34.2802V29.2372H60.3994V33.9217C60.3779 34.1214 60.4012 34.3233 60.4675 34.5128C60.5338 34.7024 60.6413 34.8747 60.7826 35.0175C60.9237 35.1603 61.095 35.2698 61.2837 35.3381C61.4725 35.4065 61.6742 35.4319 61.874 35.4127C62.7702 35.4127 63.3975 34.8912 63.3975 33.7262V29.2372H65.8172Z" fill="#394149"/>
<path d="M79.9439 32.4145V37.4493H77.4998V32.6264C77.4998 31.8117 77.1006 31.2739 76.3185 31.2739C75.5364 31.2739 75.0313 31.8524 75.0313 32.8219V37.4493H72.5872V32.6264C72.5872 31.8117 72.1961 31.2739 71.4059 31.2739C70.6157 31.2739 70.1268 31.8524 70.1268 32.8219V37.4493H67.6828V29.2372H70.1268V29.9949C70.3823 29.6602 70.7173 29.3948 71.1015 29.2227C71.4857 29.0504 71.9068 28.977 72.3265 29.0091C72.748 28.9886 73.1678 29.0777 73.5446 29.2675C73.9215 29.4574 74.2428 29.7417 74.4773 30.0926C74.7499 29.7257 75.1112 29.4339 75.5272 29.2444C75.9432 29.0549 76.4005 28.9739 76.8562 29.0091C78.7137 29.0091 79.9439 30.3615 79.9439 32.4145Z" fill="#394149"/>
<path d="M82.0296 29.1884C83.0375 29.1884 83.8545 28.3713 83.8545 27.3634C83.8545 26.3556 83.0375 25.5385 82.0296 25.5385C81.0218 25.5385 80.2047 26.3556 80.2047 27.3634C80.2047 28.3713 81.0218 29.1884 82.0296 29.1884Z" fill="#394149"/>
<path d="M29.8892 19.2491C34.6091 19.2491 38.4353 15.4229 38.4353 10.7029C38.4353 5.98307 34.6091 2.15683 29.8892 2.15683C25.1693 2.15683 21.343 5.98307 21.343 10.7029C21.343 15.4229 25.1693 19.2491 29.8892 19.2491Z" fill="#394149"/>
<path d="M48.9938 19.2491C53.7137 19.2491 57.5399 15.4229 57.5399 10.7029C57.5399 5.98307 53.7137 2.15683 48.9938 2.15683C44.2738 2.15683 40.4476 5.98307 40.4476 10.7029C40.4476 15.4229 44.2738 19.2491 48.9938 19.2491Z" fill="#394149"/>
<path d="M19.3308 2.15683H2.24664V19.2409H19.3308V2.15683Z" fill="#394149"/>
</svg>
