<svg width="15" height="44" viewBox="0 0 15 44" fill="none" xmlns="http://www.w3.org/2000/svg">
<path d="M14.719 7.69999C14.719 5.82438 13.974 4.02558 12.6477 2.69933C11.3215 1.37307 9.52262 0.627991 7.64701 0.627991C5.7714 0.627991 3.97261 1.37307 2.64635 2.69933C1.32009 4.02558 0.575012 5.82438 0.575012 7.69999V29.085L6.39901 33.258V43.424H8.89501V33.258L14.719 29.085V7.69999ZM12.223 19.66L8.89501 22.988V19.868L12.223 16.54V19.66ZM3.12301 16.54L6.45101 19.868V22.988L3.12301 19.66V16.54ZM12.223 13.004L7.64701 17.58L3.07101 12.9V9.77999L7.64701 14.356L12.223 9.77999V13.004ZM7.64701 3.12399C8.65341 3.12844 9.63059 3.46268 10.4289 4.0755C11.2272 4.68832 11.8026 5.54593 12.067 6.51699L7.64701 10.924L3.22701 6.51699C3.48173 5.53627 4.05299 4.66703 4.85218 4.04414C5.65137 3.42125 6.63378 3.07952 7.64701 3.07198V3.12399ZM3.07101 27.824V23.144L6.39901 26.472V30.19L3.07101 27.824ZM8.89501 30.203V26.472L12.223 23.144V27.811L8.89501 30.203Z" fill="white"/>
</svg>
